:SAMPLES-PER-SECOND 30
:FULLY-SPECIFIED
:DEGREES
110
root  -38.898 39.1472 -32.7076 35.0212 -78.5319 -9.55028
RightUpLeg  -54.7254 -28.2709 24.5754
RightLeg  21.5324 1.57112 0.667823
RightFoot  0.194817 0.948741 -9.34631
RightToes  0.000482159 0.542163 -0.142577
Spine  60.2176 -2.403 5.77211
Spine1  9.07012 1.12615 -2.12313
HEad  -36.8206 2.16507 -10.0346
LeftShoulder1  6.91098 -19.6054 -23.814
LeftArm  -36.914 -52.2491 -22.9801
LeftForeArm  -1.43254 -32.5701 -7.27835
LeftHand  -0.25398 0.0180481 5.50724
RightShoulder  3.23201 16.1057 9.04604
RightArm  -29.7753 36.786 14.5653
RightForeArm  -28.5903 33.7644 8.94562
RightHand  0.62189 3.88618 7.42831
LeftUpLeg  -57.0252 29.276 -26.2416
LeftLeg  16.2251 -12.1634 -4.96166
LeftFoot  8.79668 -1.88223 10.2675
LeftToes  1.06248e-005 4.65854e-005 -8.185e-006
111
root  -38.9307 39.4896 -33.1379 31.9274 -76.5836 -9.65071
RightUpLeg  -48.7211 -28.1673 21.3723
RightLeg  19.1544 -1.02901 0.806711
RightFoot  1.29652 1.05111 -9.38756
RightToes  0.000482159 0.542163 -0.142577
Spine  59.2488 -2.6504 7.21294
Spine1  6.38031 2.35193 -4.33612
HEad  -32.4962 2.45659 -10.479
LeftShoulder1  8.30651 -22.2144 -26.0164
LeftArm  -29.1363 -44.0894 -27.8527
LeftForeArm  0.328409 -35.6777 -8.03963
LeftHand  -0.25398 0.0180481 5.50724
RightShoulder  5.23029 15.889 20.5988
RightArm  -23.4355 30.9112 10.7275
RightForeArm  -27.76 39.3126 10.6631
RightHand  0.518145 1.40708 8.80562
LeftUpLeg  -47.9609 25.132 -15.1622
LeftLeg  12.0738 -4.95091 -6.4126
LeftFoot  10.6845 -1.79288 8.85723
LeftToes  1.06248e-005 4.65854e-005 -8.185e-006
112
root  -38.9862 39.7534 -33.6004 28.3671 -74.4955 -9.41571
RightUpLeg  -42.2492 -25.0935 16.0915
RightLeg  18.1108 -2.82091 0.864616
RightFoot  2.13186 1.00993 -8.40758
RightToes  0.000482159 0.542163 -0.142577
Spine  57.8851 -1.8918 7.16979
Spine1  4.88614 2.55753 -2.56334
HEad  -29.1141 5.17404 -14.0085
LeftShoulder1  9.69281 -22.4038 -31.2876
LeftArm  -24.3229 -36.9167 -28.7163
LeftForeArm  1.62927 -39.079 -8.99643
LeftHand  -0.25398 0.0180481 5.50724
RightShoulder  5.69316 15.0411 24.5168
RightArm  -19.5835 25.4278 11.8069
RightForeArm  -24.6439 44.455 12.4423
RightHand  0.364551 -1.35668 10.7828
LeftUpLeg  -40.5841 19.6891 -6.31373
LeftLeg  8.67742 1.29179 -7.73436
LeftFoot  12.2403 -1.60325 7.30866
LeftToes  1.06248e-005 4.65854e-005 -8.185e-006
113
root  -39.0688 39.9301 -34.0761 24.6566 -72.2779 -8.87029
RightUpLeg  -37.2355 -20.2256 11.5499
RightLeg  18.863 0.401616 0.725294
RightFoot  2.40436 0.790339 -6.40947
RightToes  0.000482159 0.542163 -0.142577
Spine  55.3221 -2.23001 7.15682
Spine1  5.38588 1.97689 -2.26239
HEad  -27.4072 10.3029 -17.4702
LeftShoulder1  9.17646 -20.844 -31.5598
LeftArm  -22.7341 -30.0196 -31.8051
LeftForeArm  4.58279 -43.3269 -10.2643
LeftHand  -0.25398 0.0180481 5.50724
RightShoulder  5.6159 14.2799 25.4513
RightArm  -17.0576 21.2454 15.7392
RightForeArm  -21.6586 48.5948 14.1505
RightHand  0.276079 -2.15417 10.6753
LeftUpLeg  -35.5253 15.674 -1.42044
LeftLeg  6.43876 4.17999 -8.36818
LeftFoot  13.3784 -1.35736 5.81166
LeftToes  1.06248e-005 4.65854e-005 -8.185e-006
114
root  -39.1987 40.0411 -34.5771 21.3366 -69.9709 -8.58751
RightUpLeg  -32.8243 -11.1175 5.91455
RightLeg  20.7975 3.87178 1.33245
RightFoot  1.94004 0.429614 -3.56066
RightToes  0.000482159 0.542163 -0.142577
Spine  52.92 -2.52813 7.20921
Spine1  5.51955 1.537 -1.89783
HEad  -25.7212 16.0877 -21.1239
LeftShoulder1  8.62994 -19.49 -31.4385
LeftArm  -21.6856 -22.6257 -34.6939
LeftForeArm  7.77054 -48.1814 -11.9892
LeftHand  -0.25398 0.0180481 5.50724
RightShoulder  5.35893 13.2458 25.8988
RightArm  -14.1264 17.2352 19.0904
RightForeArm  -19.1563 52.4266 16.0593
RightHand  0.244116 -2.16181 9.49469
LeftUpLeg  -31.661 12.7869 1.58952
LeftLeg  5.19759 5.18846 -8.44203
LeftFoot  14.042 -1.08919 4.4489
LeftToes  1.06248e-005 4.65854e-005 -8.185e-006
115
root  -39.3915 40.0996 -35.1404 17.6404 -67.5353 -8.19473
RightUpLeg  -28.858 0.175879 0.757661
RightLeg  22.7475 6.5386 2.79061
RightFoot  0.246802 0.0399679 -0.331864
RightToes  0.000482159 0.542163 -0.142577
Spine  50.8652 -2.641 7.06543
Spine1  5.40665 1.24492 -1.38039
HEad  -24.2814 22.1645 -24.9619
LeftShoulder1  8.76762 -18.7404 -33.3291
LeftArm  -20.2036 -15.6541 -34.247
LeftForeArm  9.20348 -52.8154 -14.1533
LeftHand  -0.25398 0.0180481 5.50724
RightShoulder  5.20099 12.3571 26.73
RightArm  -11.4325 13.6368 20.8069
RightForeArm  -16.6332 55.9338 18.1576
RightHand  0.109811 -3.58878 9.18545
LeftUpLeg  -28.1479 10.76 3.5563
LeftLeg  4.80339 4.75236 -8.18163
LeftFoot  14.2491 -0.821141 3.22598
LeftToes  1.06248e-005 4.65854e-005 -8.185e-006
116
root  -39.6548 40.0841 -35.7842 12.5341 -64.4052 -6.52617
RightUpLeg  -24.969 8.9262 -2.17858
RightLeg  24.1324 9.00499 4.1698
RightFoot  -2.97481 -0.157845 1.844
RightToes  0.000482159 0.542163 -0.142577
Spine  48.9022 -2.95672 6.69805
Spine1  5.18532 0.587165 -1.03851
HEad  -23.2823 28.9305 -28.5429
LeftShoulder1  9.23709 -18.1602 -36.5062
LeftArm  -18.2108 -9.68923 -30.9924
LeftForeArm  8.94148 -56.7956 -16.6294
LeftHand  -0.25398 0.0180481 5.50724
RightShoulder  5.15598 11.8413 27.5693
RightArm  -9.54408 10.3103 22.1349
RightForeArm  -14.4632 59.0328 20.4336
RightHand  -0.0930894 -5.94864 8.78201
LeftUpLeg  -24.8787 9.25582 4.24702
LeftLeg  4.984 2.96073 -7.76881
LeftFoot  14.3024 -0.602095 2.25745
LeftToes  1.06248e-005 4.65854e-005 -8.185e-006
117
root  -39.9652 40.0469 -36.4746 7.18547 -59.931 -3.58479
RightUpLeg  -21.4859 12.6972 -3.24548
RightLeg  24.662 8.98895 4.26675
RightFoot  -6.19656 -0.129169 1.84948
RightToes  0.000482159 0.542163 -0.142577
Spine  46.0691 -3.48672 6.57126
Spine1  4.75357 -0.493883 -0.663718
HEad  -21.3561 35.4384 -30.5606
LeftShoulder1  9.46171 -17.6438 -38.5394
LeftArm  -16.1301 -4.5498 -28.6655
LeftForeArm  8.94942 -59.9083 -19.0132
LeftHand  -0.25398 0.0180481 5.50724
RightShoulder  5.13805 11.4392 28.3809
RightArm  -8.51449 6.27952 23.3423
RightForeArm  -12.9749 62.1534 23.3591
RightHand  -0.204724 -7.73778 6.84749
LeftUpLeg  -22.2322 7.11897 3.62924
LeftLeg  4.08262 0.576327 -7.18075
LeftFoot  15.1301 -0.325432 0.996267
LeftToes  1.06248e-005 4.65854e-005 -8.185e-006
